<svg width="400" height="408.05861" xmlns="http://www.w3.org/2000/svg"><g fill="#fff" fill-rule="evenodd"><path d="M195.2 61.056c-6.019 1.196-9.252 3.106-16.338 9.652-2.784 2.572-6.042 5.58-7.24 6.684-1.198 1.105-3.718 3.459-5.6 5.232-1.882 1.773-5.942 5.549-9.022 8.391-5.527 5.1-12.311 11.409-22.352 20.785-2.827 2.64-5.794 5.385-6.594 6.101l-1.454 1.301-.2-5.835c-.265-7.718 1.443-6.967-15.847-6.967H96.458l-.829 1.054c-.814 1.034-.829 1.427-.833 21.3L94.791 149l-8.295 7.688c-4.563 4.228-9.018 8.368-9.901 9.2-.882.831-4.122 3.849-7.2 6.705-4.639 4.306-7.89 7.372-12.421 11.712-2.158 2.068-.997 7.454 4.702 21.804 4.759 11.982 8.974 19.977 10.858 20.592l1.533.5 7.041-6.7c3.873-3.686 8.493-8.083 10.267-9.771l3.225-3.071.2 24.088c.222 26.717.13 25.859 2.823 26.398 2.143.428 24.845.287 26.472-.165 2.408-.668 2.305 1.159 2.305-41.088v-39.16l2.7-2.566c1.485-1.412 7.47-7.053 13.3-12.536 5.83-5.484 12.404-11.694 14.608-13.8 14.882-14.218 41.98-39.617 42.275-39.624.257-.005 13.974 12.667 23.549 21.757 2.107 2 4.807 4.539 6 5.642 1.192 1.102 5.141 4.792 8.774 8.2 3.634 3.407 9.214 8.624 12.4 11.592 5.617 5.233 8.709 8.135 15.394 14.454 1.76 1.663 8.87 8.308 15.8 14.766 12.165 11.335 14.63 13.646 21.991 20.607 1.875 1.773 7.549 7.07 12.609 11.77 5.06 4.701 10.013 9.322 11.007 10.27 3.562 3.396 4.491 2.394 9.33-10.064 7.982-20.55 9.292-28.529 5.27-32.103-.884-.785-3.407-3.078-5.607-5.094-6.626-6.075-18.363-16.779-26.515-24.183l-7.685-6.98V129.5c0-21.45-.058-22.176-1.818-22.852-.356-.136-6.843-.248-14.415-.248-16.963 0-15.367-.768-15.367 7.4 0 3.19-.119 5.8-.264 5.8-.274 0-.707-.397-10.943-10.024-3.406-3.203-8.983-8.413-12.393-11.577-3.41-3.165-8.81-8.204-12-11.199-23.211-21.791-23.69-22.224-25.731-23.271-3.721-1.908-10.266-3.109-13.469-2.473m-25.4 135.621c-2.243.576-2.2.275-2.2 15.323 0 13.404.027 13.901.806 14.606l.806.729-.806.858c-.916.975-1.28 26.973-.401 28.616.717 1.34 3.012 1.587 14.795 1.587 17.131 0 15.69 1.522 15.521-16.401l-.121-12.732-.97-1.031c-.533-.568-.779-1.032-.545-1.032 2.057 0 2.621-27.673.604-29.689-.884-.885-24.496-1.601-27.489-.834m32.266 0c-1.936.389-2.107 1.786-1.981 16.133.1 11.452.198 13.246.757 13.804.59.59.582.761-.1 2.099-.883 1.733-1.143 25.218-.305 27.622.687 1.971 1.995 2.133 16.037 1.991l12.398-.126.764-.944c1.185-1.465 1.182-27.954-.003-29.027-.757-.684-.757-.705 0-1.462 1.25-1.25 1.182-28.267-.074-29.405-.818-.74-24.309-1.326-27.493-.685"/><path d="M131.4 24.429c-4.857.386-10.96 1.099-13.4 1.566-.99.189-2.97.553-4.4.807C47.703 38.536 7.837 90.94 18.356 152c.209 1.21.571 3.397.805 4.861 3.13 19.591 16.256 51.438 29.98 72.739 12.948 20.095 24.966 35.29 39.758 50.268 4.952 5.015 5.191 5.332 4.98 6.6-.323 1.946-.13 2.232 5.082 7.527 28.427 28.881 68.277 55.469 105.039 70.082 1.65.656 3.055 1.247 3.123 1.314.312.308-19.412 13.604-29.323 19.765-7.697 4.785-9.024 6.461-6.511 8.221 1.36.953 1.842.836 9.638-2.337 7.67-3.123 9.264-3.828 18.873-8.349C292.997 338.84 369.032 249.208 382.433 167.4c1.531-9.347 1.696-11.486 1.714-22.2.025-14.841-.259-16.52-6.78-40.113-13.692-49.54-73.578-84.427-138.636-80.763-12.416.699-20.331 1.826-32.117 4.575-6.009 1.402-7.273 3.999-3.172 6.519 2.234 1.373 1.563 1.214-3.323-.785-4.585-1.876-14.065-4.92-18.719-6.012-1.54-.361-3.52-.829-4.4-1.04-11.851-2.846-31.948-4.235-45.6-3.152m59.8 21.173c10.008 1.2 16.686 2.592 25 5.21 8.402 2.645 9.4 2.625 9.4-.186 0-1.58-.174-1.905-1.7-3.185l-1.7-1.425 2.2-.009c1.21-.004 3.64.164 5.4.373 1.76.21 5 .584 7.2.83 2.2.247 4.9.617 6 .823 13.627 2.549 16.253 3.171 23.777 5.638 56.901 18.656 87.185 67.374 77.659 124.929-1.075 6.494-1.31 7.628-1.65 7.97-.202.204-.223.564-.047.8 2.405 3.224.297 13.068-6.602 30.83-4.897 12.606-5.734 13.475-9.53 9.893L324.6 226.2l1.905 2.018 1.904 2.019-2.763 5.581c-20.824 42.068-57.689 83.867-106.798 121.092-5.472 4.148-6.245 4.613-7 4.21-.466-.248-4.088-2.522-8.048-5.053-6.401-4.091-10.464-6.251-19.9-10.582-2.624-1.204-2.7-1.281-2.7-2.72 0-1.808-.029-1.836-7.844-7.66-33.332-24.841-59.106-49.992-79.829-77.905-5.951-8.015-15.358-22.576-18.255-28.258-.677-1.327-1.187-1.766-2.559-2.2-2.079-.658-6.058-8.095-11.037-20.633-5.247-13.212-6.274-17.188-5.293-20.496.309-1.042.258-2.036-.204-4-1.62-6.893-1.991-8.787-2.739-14.013-.331-2.31-.798-5.559-1.037-7.221-.573-3.975-.574-21.345-.001-24.95.945-5.945 1.72-10.109 2.274-12.229 1.477-5.642 1.846-6.844 3.19-10.4 13.392-35.409 46.958-59.975 90.734-66.406 12.217-1.795 31.279-2.149 42.6-.792M213.6 67.4c.746.77 1.447 1.4 1.557 1.4.11 0-.411-.63-1.157-1.4-.746-.77-1.447-1.4-1.557-1.4-.11 0 .411.63 1.157 1.4m-33.019 1.5L179 70.6l1.7-1.581c1.581-1.471 1.884-1.819 1.581-1.819-.065 0-.83.765-1.7 1.7m39.219 4.3c.859.88 1.652 1.6 1.762 1.6.11 0-.503-.72-1.362-1.6-.859-.88-1.652-1.6-1.762-1.6-.11 0 .503.72 1.362 1.6m-44.419.5l-1.581 1.7 1.7-1.581c1.581-1.471 1.884-1.819 1.581-1.819-.065 0-.83.765-1.7 1.7m-5.003 4.6L169 79.8l1.5-1.378c.825-.759 1.5-1.434 1.5-1.5 0-.306-.338-.018-1.622 1.378m55.422.5c1.083 1.1 2.06 2 2.17 2 .11 0-.687-.9-1.77-2s-2.06-2-2.17-2c-.11 0 .687.9 1.77 2m-62.2 5.8c-.972.99-1.677 1.8-1.567 1.8.11 0 .995-.81 1.967-1.8.972-.99 1.677-1.8 1.567-1.8-.11 0-.995.81-1.967 1.8m68.4 0c.746.77 1.447 1.4 1.557 1.4.11 0-.411-.63-1.157-1.4-.746-.77-1.447-1.4-1.557-1.4-.11 0 .411.63 1.157 1.4m-73.622 4.9L157 91l1.5-1.378c.825-.759 1.5-1.434 1.5-1.5 0-.306-.338-.018-1.622 1.378M239 91.2c.859.88 1.652 1.6 1.762 1.6.11 0-.503-.72-1.362-1.6-.859-.88-1.652-1.6-1.762-1.6-.11 0 .503.72 1.362 1.6m-86.222 3.5l-1.378 1.5 1.5-1.378c.825-.759 1.5-1.434 1.5-1.5 0-.306-.338-.018-1.622 1.378m91.822 1.7c.859.88 1.652 1.6 1.762 1.6.11 0-.503-.72-1.362-1.6-.859-.88-1.652-1.6-1.762-1.6-.11 0 .503.72 1.362 1.6m-97.4 3.4c-.972.99-1.677 1.8-1.567 1.8.11 0 .995-.81 1.967-1.8.972-.99 1.677-1.8 1.567-1.8-.11 0-.995.81-1.967 1.8m102.4 1.125c0 .069.585.654 1.3 1.3l1.3 1.175-1.175-1.3c-1.095-1.212-1.425-1.484-1.425-1.175M141.6 105c-.972.99-1.677 1.8-1.567 1.8.11 0 .995-.81 1.967-1.8.972-.99 1.677-1.8 1.567-1.8-.11 0-.995.81-1.967 1.8m-37.1 1.299c3.465.067 9.135.067 12.6 0 3.465-.066.63-.121-6.3-.121s-9.765.055-6.3.121m152.1 1.301c.859.88 1.652 1.6 1.762 1.6.11 0-.503-.72-1.362-1.6-.859-.88-1.652-1.6-1.762-1.6-.11 0 .503.72 1.362 1.6m-130.042 6.2c0 3.08.063 4.287.139 2.682.076-1.604.076-4.124-.001-5.6-.077-1.475-.139-.162-.138 2.918m9.623-3.7l-1.581 1.7 1.7-1.581c1.581-1.471 1.884-1.819 1.581-1.819-.065 0-.83.765-1.7 1.7m133.506 3.824c-.067 4.123-.2 5.26-.587 5.041-.397-.224-.398-.173-.007.25.838.903.935.271.806-5.26l-.124-5.355-.088 5.324M201.8 111.6c.859.88 1.652 1.6 1.762 1.6.11 0-.503-.72-1.362-1.6-.859-.88-1.652-1.6-1.762-1.6-.11 0 .503.72 1.362 1.6m61 1.8c1.195 1.21 2.263 2.2 2.373 2.2.11 0-.778-.99-1.973-2.2-1.195-1.21-2.263-2.2-2.373-2.2-.11 0 .778.99 1.973 2.2m-69.419 1.1l-1.581 1.7 1.7-1.581c1.581-1.471 1.884-1.819 1.581-1.819-.065 0-.83.765-1.7 1.7m14.419 2.7c.859.88 1.652 1.6 1.762 1.6.11 0-.503-.72-1.362-1.6-.859-.88-1.652-1.6-1.762-1.6-.11 0 .503.72 1.362 1.6m-21.219 3.7L185 122.6l1.7-1.581c1.581-1.471 1.884-1.819 1.581-1.819-.065 0-.83.765-1.7 1.7M214 123c1.195 1.21 2.263 2.2 2.373 2.2.11 0-.778-.99-1.973-2.2-1.195-1.21-2.263-2.2-2.373-2.2-.11 0 .778.99 1.973 2.2m-34 4c-.972.99-1.677 1.8-1.567 1.8.11 0 .995-.81 1.967-1.8.972-.99 1.677-1.8 1.567-1.8-.11 0-.995.81-1.967 1.8m39.6 1.2c.746.77 1.447 1.4 1.557 1.4.11 0-.411-.63-1.157-1.4-.746-.77-1.447-1.4-1.557-1.4-.11 0 .411.63 1.157 1.4m-47.413 6.3L169.8 137l2.5-2.387c2.322-2.218 2.683-2.613 2.387-2.613-.061 0-1.186 1.125-2.5 2.5m55.413 1.3c.746.77 1.447 1.4 1.557 1.4.11 0-.411-.63-1.157-1.4-.746-.77-1.447-1.4-1.557-1.4-.11 0 .411.63 1.157 1.4m5.4 5c1.083 1.1 2.06 2 2.17 2 .11 0-.687-.9-1.77-2s-2.06-2-2.17-2c-.11 0 .687.9 1.77 2m-67.625.1l-1.175 1.3 1.3-1.175c1.212-1.095 1.484-1.425 1.175-1.425-.069 0-.654.585-1.3 1.3m74.025 5.9c.859.88 1.652 1.6 1.762 1.6.11 0-.503-.72-1.362-1.6-.859-.88-1.652-1.6-1.762-1.6-.11 0 .503.72 1.362 1.6m-81.814 1.5l-2.186 2.3 2.3-2.186c2.137-2.032 2.483-2.414 2.186-2.414-.062 0-1.097 1.035-2.3 2.3m144.014 1.425c0 .069.585.654 1.3 1.3l1.3 1.175-1.175-1.3c-1.095-1.212-1.425-1.484-1.425-1.175m-56.2 2.675c.859.88 1.652 1.6 1.762 1.6.11 0-.503-.72-1.362-1.6-.859-.88-1.652-1.6-1.762-1.6-.11 0 .503.72 1.362 1.6m-156.819 2.1L87 156.2l1.7-1.581c1.581-1.471 1.884-1.819 1.581-1.819-.065 0-.83.765-1.7 1.7m61.819.5c-.972.99-1.677 1.8-1.567 1.8.11 0 .995-.81 1.967-1.8.972-.99 1.677-1.8 1.567-1.8-.11 0-.995.81-1.967 1.8m156.6-.2c.859.88 1.652 1.6 1.762 1.6.11 0-.503-.72-1.362-1.6-.859-.88-1.652-1.6-1.762-1.6-.11 0 .503.72 1.362 1.6m-56.2 2.525c0 .069.585.654 1.3 1.3l1.3 1.175-1.175-1.3c-1.095-1.212-1.425-1.484-1.425-1.175M83.2 159.4c-.972.99-1.677 1.8-1.567 1.8.11 0 .995-.81 1.967-1.8.972-.99 1.677-1.8 1.567-1.8-.11 0-.995.81-1.967 1.8m228.4-.4c.746.77 1.447 1.4 1.557 1.4.11 0-.411-.63-1.157-1.4-.746-.77-1.447-1.4-1.557-1.4-.11 0 .411.63 1.157 1.4m-168.215 2.7l-1.985 2.1 2.1-1.985c1.951-1.844 2.283-2.215 1.985-2.215-.063 0-1.008.945-2.1 2.1m171.415.025c0 .069.585.654 1.3 1.3l1.3 1.175-1.175-1.3c-1.095-1.212-1.425-1.484-1.425-1.175m-56.6 2.675c1.306 1.32 2.465 2.4 2.575 2.4.11 0-.869-1.08-2.175-2.4-1.306-1.32-2.465-2.4-2.575-2.4-.11 0 .869 1.08 2.175 2.4m-181 .6c-.972.99-1.677 1.8-1.567 1.8.11 0 .995-.81 1.967-1.8.972-.99 1.677-1.8 1.567-1.8-.11 0-.995.81-1.967 1.8m59.586 2.9l-2.186 2.3 2.3-2.186c2.137-2.032 2.483-2.414 2.186-2.414-.062 0-1.097 1.035-2.3 2.3m182.814-1.775c0 .069.585.654 1.3 1.3l1.3 1.175-1.175-1.3c-1.095-1.212-1.425-1.484-1.425-1.175M71.385 170.5l-1.985 2.1 2.1-1.985c1.155-1.092 2.1-2.037 2.1-2.1 0-.298-.371.034-2.215 1.985m193.215-.1c.859.88 1.652 1.6 1.762 1.6.11 0-.503-.72-1.362-1.6-.859-.88-1.652-1.6-1.762-1.6-.11 0 .503.72 1.362 1.6m-135.625 4.9l-1.175 1.3 1.3-1.175c1.212-1.095 1.484-1.425 1.175-1.425-.069 0-.654.585-1.3 1.3m141.808.8c.981 1.045 1.836 1.9 1.9 1.9.301 0-.017-.359-1.783-2.017L269 174.2l1.783 1.9m-205.808.4l-1.175 1.3 1.3-1.175c1.212-1.095 1.484-1.425 1.175-1.425-.069 0-.654.585-1.3 1.3m61.617 40.1c0 21.56.049 30.321.108 19.47.059-10.852.059-28.492 0-39.2-.059-10.709-.108-1.83-.108 19.73m150.008-35c.859.88 1.652 1.6 1.762 1.6.11 0-.503-.72-1.362-1.6-.859-.88-1.652-1.6-1.762-1.6-.11 0 .503.72 1.362 1.6m-217.8.6c-.972.99-1.677 1.8-1.567 1.8.11 0 .995-.81 1.967-1.8.972-.99 1.677-1.8 1.567-1.8-.11 0-.995.81-1.967 1.8m223.8 5c.859.88 1.652 1.6 1.762 1.6.11 0-.503-.72-1.362-1.6-.859-.88-1.652-1.6-1.762-1.6-.11 0 .503.72 1.362 1.6m6.183 5.7c.981 1.045 1.836 1.9 1.9 1.9.301 0-.017-.359-1.783-2.017L287 191l1.783 1.9m7.2 6.8c.981 1.045 1.836 1.9 1.9 1.9.301 0-.017-.359-1.783-2.017l-1.9-1.783 1.783 1.9m-128.604 12.5c0 7.26.054 10.286.12 6.725s.067-9.501 0-13.2c-.066-3.699-.12-.785-.12 6.475m63.2 0c0 7.26.054 10.286.12 6.725s.067-9.501 0-13.2c-.066-3.699-.12-.785-.12 6.475m71.221-7c1.083 1.1 2.06 2 2.17 2 .11 0-.687-.9-1.77-2s-2.06-2-2.17-2c-.11 0 .687.9 1.77 2m-209.215 4.5l-1.985 2.1 2.1-1.985c1.155-1.092 2.1-2.037 2.1-2.1 0-.298-.371.034-2.215 1.985m215.615 1.5c.859.88 1.652 1.6 1.762 1.6.11 0-.503-.72-1.362-1.6-.859-.88-1.652-1.6-1.762-1.6-.11 0 .503.72 1.362 1.6m-221.225 3.7l-1.175 1.3 1.3-1.175c1.212-1.095 1.484-1.425 1.175-1.425-.069 0-.654.585-1.3 1.3m227.625 2.3c1.083 1.1 2.06 2 2.17 2 .11 0-.687-.9-1.77-2s-2.06-2-2.17-2c-.11 0 .687.9 1.77 2m-234.813 4.5l-2.387 2.5 2.5-2.387c2.322-2.218 2.683-2.613 2.387-2.613-.061 0-1.186 1.125-2.5 2.5m240.413.7c.859.88 1.652 1.6 1.762 1.6.11 0-.503-.72-1.362-1.6-.859-.88-1.652-1.6-1.762-1.6-.11 0 .503.72 1.362 1.6m-152.821 20.4c0 7.15.054 10.075.12 6.5.067-3.575.067-9.425 0-13-.066-3.575-.12-.65-.12 6.5m63.2 0c0 7.15.054 10.075.12 6.5.067-3.575.067-9.425 0-13-.066-3.575-.12-.65-.12 6.5"/></g></svg>