<?xml version="1.0" encoding="iso-8859-1"?>
<!-- Generator: Adobe Illustrator 19.0.0, SVG Export Plug-In . SVG Version: 6.00 Build 0)  -->
<svg version="1.1" id="Capa_1" xmlns="http://www.w3.org/2000/svg" xmlns:xlink="http://www.w3.org/1999/xlink" x="0px" y="0px"
	 viewBox="0 0 480 480" style="enable-background:new 0 0 480 480;" xml:space="preserve">
<g>
	<g>
		<path d="M464,249.966v-17.472c0-8.837-7.163-16-16-16h-8v-120c-0.026-26.499-21.501-47.974-48-48h-2.84
			c-12.531-12.14-32.492-11.958-44.8,0.408c-3.123,3.124-3.123,8.188,0,11.312l33.944,33.936c3.124,3.123,8.188,3.123,11.312,0
			c6.017-5.989,9.39-14.135,9.368-22.624c-0.002-2.149-0.216-4.293-0.64-6.4C413.26,68.162,423.983,81.272,424,96.494v120h-8
			c-8.837,0-16,7.163-16,16v16H215.656c0.12-1.336,0.344-2.648,0.344-4c-0.027-24.327-19.771-44.026-44.098-43.998
			c-9.253,0.01-18.269,2.935-25.766,8.358c-8.579-10.011-23.649-11.173-33.66-2.594c-0.534,0.458-1.048,0.939-1.54,1.442
			c-18.088-12.683-43.033-8.301-55.716,9.787c-1.586,2.262-2.933,4.682-4.021,7.221c-13.136-1.767-25.218,7.449-26.986,20.586
			c-0.143,1.06-0.214,2.129-0.214,3.198c-13.231,0.057-23.943,10.769-24,24c0.042,10.134,6.445,19.15,16,22.528v9.472
			c0.068,42.393,30.32,78.726,72,86.472v25.528c0,13.255,10.745,24,24,24s24-10.745,24-24v-24h208v24c0,13.255,10.745,24,24,24
			s24-10.745,24-24v-25.528c41.68-7.746,71.932-44.079,72-86.472v-9.448c3.344-1.134,6.378-3.029,8.864-5.536
			c4.594-4.465,7.171-10.61,7.136-17.016C479.958,262.359,473.555,253.344,464,249.966z M382.488,75.694l-19.608-19.6
			c5.526-1.412,11.388,0.162,15.464,4.152c3.005,2.996,4.69,7.068,4.68,11.312C383.024,72.954,382.844,74.344,382.488,75.694z
			 M416,232.494h32v16h-32V232.494z M48,240.494c1.423-0.022,2.818,0.391,4,1.184c3.66,2.475,8.633,1.514,11.108-2.146
			c0.639-0.945,1.069-2.016,1.26-3.142c2.274-13.058,14.704-21.8,27.762-19.526c5.624,0.979,10.714,3.932,14.358,8.326
			c2.823,3.399,7.867,3.865,11.266,1.042c1.24-1.03,2.141-2.412,2.582-3.963c1.183-4.225,5.567-6.69,9.792-5.507
			c3.009,0.843,5.244,3.37,5.712,6.459c0.636,4.372,4.696,7.401,9.069,6.765c2.009-0.292,3.832-1.338,5.099-2.925
			c9.635-12.124,27.274-14.141,39.398-4.506c6.69,5.317,10.59,13.393,10.594,21.938c-0.024,7.186-2.791,14.091-7.736,19.304
			c-0.44,0.44-0.944,0.92-1.6,1.496c-0.608,0.544-1.224,1.088-1.528,1.344c-0.688,0.488-1.376,0.984-2.136,1.456
			c-2.953,1.862-4.359,5.423-3.472,8.8c0.31,1.175,0.469,2.385,0.472,3.6c0.003,1.852-0.339,3.689-1.008,5.416
			c-3.207,8.385-12.605,12.583-20.991,9.376c-0.704-0.269-1.389-0.588-2.049-0.952c-2.494-1.311-5.477-1.29-7.952,0.056l-1.176,0.56
			c-0.488,0.208-0.968,0.44-1.992,0.8c-0.352,0.125-0.717,0.208-1.088,0.248c-0.364,0.03-0.725,0.089-1.08,0.176
			c-0.929,0.198-1.875,0.305-2.824,0.32c-3.85-0.623-7.588,1.621-8.848,5.312c-2.881,8.298-11.943,12.689-20.241,9.808
			c-4.999-1.736-8.807-5.844-10.159-10.96c-0.905-3.455-4.012-5.877-7.584-5.912c-0.048,0-0.096,0-0.144,0
			c-1.042,0.004-2.074,0.208-3.04,0.6c-3.601,1.406-7.599,1.406-11.2,0c-4.562-1.66-8.141-5.277-9.752-9.856
			c-0.147-0.325-0.265-0.662-0.352-1.008c-0.792-4.347-4.958-7.228-9.305-6.435c-1.091,0.199-2.128,0.622-3.047,1.244
			c-1.235,0.815-2.689,1.236-4.168,1.208c-4.418,0-8-3.582-8-8c-0.02-1.58,0.441-3.128,1.32-4.44
			c2.496-3.646,1.564-8.625-2.081-11.121c-0.617-0.422-1.289-0.756-1.999-0.991c-3.139-1.134-5.233-4.11-5.24-7.448
			C40,244.075,43.582,240.494,48,240.494z M16,272.494c-0.007-2.158,0.879-4.223,2.448-5.704c1.465-1.484,3.467-2.312,5.552-2.296
			h6.136c0.779,0.856,1.616,1.658,2.504,2.4c-0.429,1.836-0.644,3.715-0.64,5.6c0.009,1.512,0.162,3.02,0.456,4.504
			c0.088,0.48,0.248,0.928,0.368,1.392c0.176,0.704,0.304,1.432,0.544,2.104H24C19.582,280.494,16,276.912,16,272.494z M120,416.494
			c0,4.418-3.582,8-8,8s-8-3.582-8-8v-24h16V416.494z M376,416.494c0,4.418-3.582,8-8,8s-8-3.582-8-8v-24h16V416.494z M448,304.494
			c-0.044,39.746-32.254,71.956-72,72H104c-39.746-0.044-71.956-32.254-72-72v-8h28.312c0.384,0.664,0.856,1.264,1.28,1.896
			c0.424,0.632,0.8,1.264,1.248,1.84c0.56,0.72,1.2,1.36,1.816,2.024c0.448,0.472,0.848,0.984,1.312,1.432
			c0.752,0.712,1.6,1.328,2.4,1.968c0.416,0.32,0.8,0.68,1.216,0.984c0.984,0.671,2.004,1.288,3.056,1.848
			c0.32,0.176,0.608,0.392,0.936,0.552c1.243,0.618,2.526,1.153,3.84,1.6c0.168,0.056,0.312,0.144,0.48,0.2
			c4.594,1.547,9.484,2.013,14.288,1.36c8.642,15.36,28.1,20.806,43.46,12.164c5.092-2.865,9.299-7.072,12.164-12.164
			c0.616-0.08,1.224-0.192,1.848-0.312c1.495-0.187,2.967-0.528,4.392-1.016l0.8-0.32c0.376-0.144,0.8-0.288,1.152-0.456
			c3.809,1.561,7.883,2.376,12,2.4c1.572-0.009,3.142-0.132,4.696-0.368c0.52-0.08,1.016-0.208,1.536-0.312
			c0.993-0.182,1.976-0.417,2.944-0.704c0.616-0.176,1.208-0.4,1.808-0.616c0.8-0.296,1.6-0.616,2.4-0.976
			c0.648-0.296,1.28-0.616,1.904-0.952c0.624-0.336,1.296-0.744,1.928-1.152c0.632-0.408,1.328-0.848,1.968-1.32
			c0.48-0.36,0.928-0.8,1.384-1.144c0.704-0.592,1.416-1.168,2.064-1.824c0.096-0.088,0.176-0.2,0.264-0.296
			c1.598-1.649,3.006-3.471,4.2-5.432c0.192-0.312,0.416-0.592,0.6-0.904H448V304.494z M461.552,278.198
			c-1.465,1.484-3.467,2.312-5.552,2.296H200c0-0.656,0-1.304-0.064-1.952c0.486-0.402,0.951-0.829,1.392-1.28l0.08-0.088
			c0.9-0.74,1.747-1.542,2.536-2.4c1.859-1.985,3.522-4.144,4.968-6.448c0.392-0.6,0.752-1.216,1.112-1.84
			c0.36-0.624,0.8-1.272,1.168-1.952H456c4.418,0,8,3.582,8,8C463.996,274.678,463.111,276.726,461.552,278.198z"/>
	</g>
</g>
<g>
	<g>
		<path d="M336,136.494c-13.255,0-24,10.745-24,24s10.745,24,24,24s24-10.745,24-24S349.255,136.494,336,136.494z M336,168.494
			c-4.418,0-8-3.582-8-8s3.582-8,8-8s8,3.582,8,8S340.418,168.494,336,168.494z"/>
	</g>
</g>
<g>
	<g>
		<path d="M248,104.494c-13.255,0-24,10.745-24,24s10.745,24,24,24s24-10.745,24-24S261.255,104.494,248,104.494z M248,136.494
			c-4.418,0-8-3.582-8-8c0-4.418,3.582-8,8-8s8,3.582,8,8C256,132.912,252.418,136.494,248,136.494z"/>
	</g>
</g>
<g>
</g>
<g>
</g>
<g>
</g>
<g>
</g>
<g>
</g>
<g>
</g>
<g>
</g>
<g>
</g>
<g>
</g>
<g>
</g>
<g>
</g>
<g>
</g>
<g>
</g>
<g>
</g>
<g>
</g>
</svg>
