<?xml version="1.0" encoding="iso-8859-1"?>
<!-- Generator: Adobe Illustrator 19.0.0, SVG Export Plug-In . SVG Version: 6.00 Build 0)  -->
<svg version="1.1" id="Capa_1" xmlns="http://www.w3.org/2000/svg" xmlns:xlink="http://www.w3.org/1999/xlink" x="0px" y="0px"
	 viewBox="0 0 480 480" style="enable-background:new 0 0 480 480;" xml:space="preserve">
<g>
	<g>
		<path d="M464,320v-32c0.001-15.066-6.09-29.493-16.888-40H448V136c-0.053-48.579-39.421-87.947-88-88H120
			c-48.579,0.053-87.947,39.421-88,88v112h0.888C22.09,258.507,15.999,272.934,16,288v32H0v64h16v48h48v-48h352v48h48v-48h16v-64
			H464z M48,136c0.044-39.746,32.254-71.956,72-72h240c39.746,0.044,71.956,32.254,72,72v101.48c-7.49-3.598-15.691-5.471-24-5.48
			h-8v-24c-0.026-22.08-17.92-39.974-40-40h-64c-22.08,0.026-39.974,17.92-40,40v24h-32v-24c-0.026-22.08-17.92-39.974-40-40h-64
			c-22.08,0.026-39.974,17.92-40,40v24h-8c-8.309,0.009-16.51,1.882-24,5.48V136z M384,208v24H272v-24c0-13.255,10.745-24,24-24h64
			C373.255,184,384,194.745,384,208z M208,208v24H96v-24c0-13.255,10.745-24,24-24h64C197.255,184,208,194.745,208,208z M32,288
			c0.026-22.08,17.92-39.974,40-40h336c22.08,0.026,39.974,17.92,40,40v32H32V288z M48,416H32v-32h16V416z M448,416h-16v-32h16V416z
			 M464,368H16v-32h448V368z"/>
	</g>
</g>
<g>
	<g>
		<path d="M287.024,88.968c-11.96-11.96-31.352-11.96-43.312,0L240,92.688l-3.72-3.72c-11.96-11.96-31.352-11.96-43.312,0
			c-11.96,11.96-11.96,31.352,0,43.312L240,179.312l47.024-47.032C298.984,120.32,298.984,100.928,287.024,88.968z M275.712,120.968
			L240,156.688l-35.72-35.72c-5.708-5.72-5.699-14.984,0.021-20.693c2.742-2.737,6.457-4.274,10.331-4.275
			c3.881-0.01,7.605,1.531,10.344,4.28L240,115.312l15.024-15.032c5.715-5.713,14.98-5.711,20.693,0.005
			c2.741,2.743,4.282,6.461,4.283,10.339C279.987,114.502,278.447,118.219,275.712,120.968z"/>
	</g>
</g>
<g>
</g>
<g>
</g>
<g>
</g>
<g>
</g>
<g>
</g>
<g>
</g>
<g>
</g>
<g>
</g>
<g>
</g>
<g>
</g>
<g>
</g>
<g>
</g>
<g>
</g>
<g>
</g>
<g>
</g>
</svg>
