<?xml version="1.0" encoding="iso-8859-1"?>
<!-- Generator: Adobe Illustrator 19.0.0, SVG Export Plug-In . SVG Version: 6.00 Build 0)  -->
<svg version="1.1" id="Capa_1" xmlns="http://www.w3.org/2000/svg" xmlns:xlink="http://www.w3.org/1999/xlink" x="0px" y="0px"
	 viewBox="0 0 512 512" style="enable-background:new 0 0 512 512;" xml:space="preserve">
<g>
	<g>
		<path d="M506.052,247.868l-183.526-58.394L264.132,5.948C263.006,2.406,259.721,0,256,0s-7.006,2.406-8.132,5.948l-58.394,183.526
			L5.948,247.868C2.406,248.994,0,252.279,0,256s2.406,7.006,5.948,8.132l183.526,58.394l58.394,183.526
			C248.994,509.593,252.28,512,256,512c3.721,0,7.006-2.406,8.132-5.948l58.394-183.526l183.526-58.394
			C509.593,263.006,512,259.72,512,256C512,252.279,509.594,248.994,506.052,247.868z M313.148,307.601
			c-2.637,0.836-4.71,2.901-5.547,5.547L256,475.324l-51.601-162.176c-0.845-2.637-2.91-4.702-5.547-5.547L36.676,256
			l162.176-51.601c2.637-0.836,4.71-2.901,5.547-5.547L256,36.676l51.601,162.176c0.845,2.637,2.91,4.702,5.547,5.547L475.324,256
			L313.148,307.601z"/>
	</g>
</g>
<g>
	<g>
		<path d="M432.725,79.326c-2.577-2.586-6.528-3.26-9.813-1.655c-0.768,0.384-77.286,37.888-126.302,63.241
			c-3.686,1.911-5.47,6.204-4.207,10.163l15.198,47.787c0.845,2.628,2.91,4.693,5.547,5.538l47.778,15.198
			c0.853,0.273,1.724,0.401,2.586,0.401c3.157,0,6.153-1.758,7.629-4.719l63.155-126.131
			C435.934,85.888,435.302,81.929,432.725,79.326z M359.142,201.122l-36.617-11.648l-11.674-36.702
			c31.573-16.23,71.996-36.309,96.828-48.572L359.142,201.122z"/>
	</g>
</g>
<g>
	<g>
		<path d="M215.287,140.851L89.156,77.696c-3.277-1.638-7.228-1.007-9.83,1.579c-2.603,2.569-3.268,6.519-1.655,9.813
			c0.375,0.768,37.888,77.286,63.241,126.293c1.493,2.901,4.463,4.617,7.578,4.617c0.862,0,1.732-0.128,2.586-0.41l47.778-15.198
			c2.637-0.836,4.71-2.901,5.547-5.547l15.198-47.77C220.877,147.072,219.042,142.737,215.287,140.851z M189.474,189.483
			l-36.702,11.674c-16.222-31.582-36.301-72.004-48.572-96.828l96.922,48.538L189.474,189.483z"/>
	</g>
</g>
<g>
	<g>
		<path d="M434.33,422.929c-0.358-0.742-36.685-74.974-63.241-126.302c-1.903-3.695-6.195-5.453-10.163-4.215l-47.778,15.198
			c-2.637,0.836-4.71,2.901-5.547,5.547l-15.198,47.77c-1.28,4.002,0.555,8.337,4.309,10.223l126.131,63.155
			c1.22,0.606,2.526,0.896,3.823,0.896c2.202,0,4.369-0.853,6.007-2.466C435.268,430.165,435.934,426.223,434.33,422.929z
			 M310.878,359.142l11.648-36.625l36.702-11.674c16.759,32.589,36.523,72.371,48.597,96.836L310.878,359.142z"/>
	</g>
</g>
<g>
	<g>
		<path d="M219.597,360.926l-15.198-47.787c-0.845-2.628-2.91-4.693-5.547-5.538l-47.778-15.198
			c-4.002-1.28-8.337,0.555-10.214,4.318L77.705,422.852c-1.638,3.26-1.007,7.219,1.57,9.822c1.638,1.647,3.831,2.526,6.059,2.526
			c1.271,0,2.56-0.282,3.755-0.87c0.768-0.384,77.286-37.888,126.302-63.241C219.076,369.178,220.86,364.885,219.597,360.926z
			 M104.32,407.799l48.538-96.922l36.608,11.648l11.682,36.702C169.574,375.458,129.152,395.537,104.32,407.799z"/>
	</g>
</g>
<g>
	<g>
		<path d="M202.3,309.7c-3.328-3.336-8.738-3.336-12.066,0L79.3,420.634c-3.337,3.337-3.337,8.73,0,12.066
			c1.664,1.664,3.849,2.5,6.033,2.5c2.185,0,4.369-0.836,6.033-2.5L202.3,321.766C205.636,318.43,205.636,313.037,202.3,309.7z"/>
	</g>
</g>
<g>
	<g>
		<path d="M432.7,420.634L321.766,309.7c-3.328-3.336-8.738-3.336-12.066,0c-3.336,3.337-3.336,8.73,0,12.066L420.634,432.7
			c1.664,1.664,3.849,2.5,6.033,2.5c2.184,0,4.369-0.836,6.033-2.5C436.036,429.363,436.036,423.97,432.7,420.634z"/>
	</g>
</g>
<g>
	<g>
		<path d="M432.7,79.3c-3.328-3.337-8.738-3.337-12.066,0L309.7,190.234c-3.336,3.336-3.336,8.73,0,12.066
			c1.664,1.664,3.849,2.5,6.033,2.5c2.185,0,4.369-0.836,6.033-2.5L432.7,91.366C436.036,88.03,436.036,82.637,432.7,79.3z"/>
	</g>
</g>
<g>
	<g>
		<path d="M202.3,190.234L91.366,79.3c-3.328-3.337-8.738-3.337-12.066,0c-3.337,3.337-3.337,8.73,0,12.066L190.234,202.3
			c1.664,1.664,3.849,2.5,6.033,2.5c2.185,0,4.369-0.836,6.033-2.5C205.636,198.963,205.636,193.57,202.3,190.234z"/>
	</g>
</g>
<g>
	<g>
		<path d="M256,375.467c-4.71,0-8.533,3.814-8.533,8.533v119.467c0,4.719,3.823,8.533,8.533,8.533s8.533-3.814,8.533-8.533V384
			C264.533,379.281,260.71,375.467,256,375.467z"/>
	</g>
</g>
<g>
	<g>
		<path d="M256,0c-4.71,0-8.533,3.814-8.533,8.533V128c0,4.719,3.823,8.533,8.533,8.533s8.533-3.814,8.533-8.533V8.533
			C264.533,3.814,260.71,0,256,0z"/>
	</g>
</g>
<g>
	<g>
		<path d="M128,247.467H8.533C3.823,247.467,0,251.281,0,256s3.823,8.533,8.533,8.533H128c4.71,0,8.533-3.814,8.533-8.533
			C136.533,251.281,132.71,247.467,128,247.467z"/>
	</g>
</g>
<g>
	<g>
		<path d="M503.467,247.467H384c-4.71,0-8.533,3.814-8.533,8.533s3.823,8.533,8.533,8.533h119.467c4.71,0,8.533-3.814,8.533-8.533
			C512,251.281,508.177,247.467,503.467,247.467z"/>
	</g>
</g>
<g>
	<g>
		<path d="M256,213.333c-23.526,0-42.667,19.14-42.667,42.667c0,23.526,19.14,42.667,42.667,42.667
			c23.526,0,42.667-19.14,42.667-42.667C298.667,232.474,279.526,213.333,256,213.333z M256,281.6c-14.114,0-25.6-11.486-25.6-25.6
			s11.486-25.6,25.6-25.6s25.6,11.486,25.6,25.6S270.114,281.6,256,281.6z"/>
	</g>
</g>
<g>
</g>
<g>
</g>
<g>
</g>
<g>
</g>
<g>
</g>
<g>
</g>
<g>
</g>
<g>
</g>
<g>
</g>
<g>
</g>
<g>
</g>
<g>
</g>
<g>
</g>
<g>
</g>
<g>
</g>
</svg>
