<?xml version="1.0" encoding="utf-8"?>
<!-- Generator: Adobe Illustrator 22.0.0, SVG Export Plug-In . SVG Version: 6.00 Build 0)  -->
<svg version="1.1" id="Layer_1" xmlns="http://www.w3.org/2000/svg" xmlns:xlink="http://www.w3.org/1999/xlink" x="0px" y="0px"
	 viewBox="0 0 512 512" style="enable-background:new 0 0 512 512;" xml:space="preserve">
<style type="text/css">
	.st0{fill:#456FCA;}
	.st1{fill:#007BFF;}
</style>
<g>
	<g id="XMLID_1_">
		<g>
			<path class="st0" d="M204.8,51.2c84.7,0,153.6,68.9,153.6,153.6c0,84.7-68.9,153.6-153.6,153.6S51.2,289.5,51.2,204.8
				C51.2,120.1,120.1,51.2,204.8,51.2z M304.7,210.9c3.3-3.3,3.3-8.7,0-12.1l-17.1-17.1c0,0,0,0,0,0l-76.8-76.8
				c-3.3-3.3-8.7-3.3-12.1,0L122,181.7c0,0,0,0,0,0l-17.1,17.1c-3.3,3.3-3.3,8.7,0,12.1c3.3,3.3,8.7,3.3,12.1,0l2.5-2.5v73.3
				c0,4.7,3.8,8.5,8.5,8.5h59.7c4.7,0,8.5-3.8,8.5-8.5v-42.7h17.1v42.7c0,4.7,3.8,8.5,8.5,8.5h59.7c4.7,0,8.5-3.8,8.5-8.5v-73.3
				l2.5,2.5c1.7,1.7,3.9,2.5,6,2.5C300.9,213.4,303,212.5,304.7,210.9z"/>
			<path class="st1" d="M204.8,17.1c103.5,0,187.7,84.2,187.7,187.7c0,103.5-84.2,187.7-187.7,187.7S17.1,308.3,17.1,204.8
				C17.1,101.3,101.3,17.1,204.8,17.1z M375.5,204.8c0-94.1-76.6-170.7-170.7-170.7S34.1,110.7,34.1,204.8
				c0,94.1,76.6,170.7,170.7,170.7S375.5,298.9,375.5,204.8z"/>
			<path class="st1" d="M273.1,191.3v81.8h-42.7v-42.7c0-4.7-3.8-8.5-8.5-8.5h-34.1c-4.7,0-8.5,3.8-8.5,8.5v42.7h-42.7v-81.8
				l68.3-68.3L273.1,191.3z"/>
			<path d="M509.5,198.8c3.3,3.3,3.3,8.7,0,12.1c-1.7,1.7-3.9,2.5-6,2.5c-2.2,0-4.4-0.8-6-2.5l-2.5-2.5v73.3c0,4.7-3.8,8.5-8.5,8.5
				h-51.2c-4.7,0-8.5-3.8-8.5-8.5v-51.2c0-4.7,3.8-8.5,8.5-8.5s8.5,3.8,8.5,8.5v42.7h34.1v-81.8L403.6,117c-3.3-3.3-3.3-8.7,0-12.1
				c3.3-3.3,8.7-3.3,12.1,0l76.8,76.8c0,0,0,0,0,0L509.5,198.8z"/>
			<path d="M499.5,439.2c8,8.1,12.5,18.8,12.5,30.2s-4.5,22.1-12.5,30.2c-8.3,8.3-19.3,12.5-30.2,12.5c-10.9,0-21.8-4.1-30.2-12.5
				L338,398.4c-3.3-3.3-3.3-8.7,0-12.1c3.3-3.3,8.7-3.3,12.1,0l101.1,101.1c10,10,26.2,10,36.2,0c4.8-4.8,7.5-11.3,7.5-18.1
				c0-6.8-2.7-13.3-7.5-18.1l-53.8-53.7l-18,18.1c-3.3,3.4-8.7,3.4-12.1,0c-3.3-3.3-3.4-8.7,0-12.1l24.1-24.2
				c0.8-0.8,1.8-1.4,2.8-1.9c1-0.4,2.1-0.7,3.3-0.7c2.3,0,4.4,0.9,6,2.5L499.5,439.2z"/>
			<path d="M416.5,356.2c3.3,3.3,3.3,8.7,0,12.1c-1.7,1.7-3.9,2.5-6,2.5c-2.2,0-4.4-0.8-6-2.5l-18.1-18.1c-3.3-3.3-3.3-8.7,0-12.1
				c3.3-3.3,8.7-3.3,12.1,0L416.5,356.2z"/>
			<path d="M204.8,0c112.9,0,204.8,91.9,204.8,204.8c0,112.9-91.9,204.8-204.8,204.8S0,317.7,0,204.8C0,91.9,91.9,0,204.8,0z
				 M392.5,204.8c0-103.5-84.2-187.7-187.7-187.7S17.1,101.3,17.1,204.8c0,103.5,84.2,187.7,187.7,187.7S392.5,308.3,392.5,204.8z"
				/>
			<path d="M204.8,34.2c94.1,0,170.7,76.6,170.7,170.7c0,94.1-76.6,170.7-170.7,170.7S34.1,298.9,34.1,204.8
				C34.1,110.7,110.7,34.2,204.8,34.2z M358.4,204.8c0-84.7-68.9-153.6-153.6-153.6S51.2,120.1,51.2,204.8
				c0,84.7,68.9,153.6,153.6,153.6S358.4,289.5,358.4,204.8z"/>
			<path d="M304.7,198.8c3.3,3.3,3.3,8.7,0,12.1c-1.7,1.7-3.9,2.5-6,2.5c-2.2,0-4.4-0.8-6-2.5l-2.5-2.5v73.3c0,4.7-3.8,8.5-8.5,8.5
				h-59.7c-4.7,0-8.5-3.8-8.5-8.5v-42.7h-17.1v42.7c0,4.7-3.8,8.5-8.5,8.5H128c-4.7,0-8.5-3.8-8.5-8.5v-73.3l-2.5,2.5
				c-3.3,3.3-8.7,3.3-12.1,0c-3.3-3.3-3.3-8.7,0-12.1l17.1-17.1c0,0,0,0,0,0l76.8-76.8c3.3-3.3,8.7-3.3,12.1,0l76.8,76.8
				c0,0,0,0,0,0L304.7,198.8z M273.1,273.1v-81.8L204.8,123l-68.3,68.3v81.8h42.7v-42.7c0-4.7,3.8-8.5,8.5-8.5h34.1
				c4.7,0,8.5,3.8,8.5,8.5v42.7H273.1z"/>
		</g>
		<g>
		</g>
	</g>
</g>
</svg>
