<?xml version="1.0" encoding="iso-8859-1"?>
<!-- Generator: Adobe Illustrator 19.0.0, SVG Export Plug-In . SVG Version: 6.00 Build 0)  -->
<svg version="1.1" id="Capa_1" xmlns="http://www.w3.org/2000/svg" xmlns:xlink="http://www.w3.org/1999/xlink" x="0px" y="0px"
	 viewBox="0 0 512 512" style="enable-background:new 0 0 512 512;" xml:space="preserve">
<g>
	<g>
		<path d="M59.733,25.6H51.2v-8.533c0-4.719-3.823-8.533-8.533-8.533H8.533C3.823,8.533,0,12.348,0,17.067V51.2
			c0,4.719,3.823,8.533,8.533,8.533h8.533v8.533c0,4.719,3.823,8.533,8.533,8.533c4.71,0,8.533-3.814,8.533-8.533v-8.533h8.533
			c4.71,0,8.533-3.814,8.533-8.533v-8.533h8.533c4.71,0,8.533-3.814,8.533-8.533S64.444,25.6,59.733,25.6z"/>
	</g>
</g>
<g>
	<g>
		<path d="M102.4,68.267H68.267c-4.71,0-8.533,3.814-8.533,8.533v34.133c0,4.719,3.823,8.533,8.533,8.533H102.4
			c4.71,0,8.533-3.814,8.533-8.533V76.8C110.933,72.081,107.11,68.267,102.4,68.267z"/>
	</g>
</g>
<g>
	<g>
		<path d="M443.733,68.267H409.6c-4.71,0-8.533,3.814-8.533,8.533v34.133c0,4.719,3.823,8.533,8.533,8.533h34.133
			c4.71,0,8.533-3.814,8.533-8.533V76.8C452.267,72.081,448.444,68.267,443.733,68.267z"/>
	</g>
</g>
<g>
	<g>
		<path d="M102.4,392.533H68.267c-4.71,0-8.533,3.814-8.533,8.533V435.2c0,4.719,3.823,8.533,8.533,8.533H102.4
			c4.71,0,8.533-3.814,8.533-8.533v-34.133C110.933,396.348,107.11,392.533,102.4,392.533z"/>
	</g>
</g>
<g>
	<g>
		<path d="M443.733,392.533H409.6c-4.71,0-8.533,3.814-8.533,8.533V435.2c0,4.719,3.823,8.533,8.533,8.533h34.133
			c4.71,0,8.533-3.814,8.533-8.533v-34.133C452.267,396.348,448.444,392.533,443.733,392.533z"/>
	</g>
</g>
<g>
	<g>
		<path d="M503.467,8.533h-34.133c-4.71,0-8.533,3.814-8.533,8.533v17.067V51.2c0,4.719,3.823,8.533,8.533,8.533h8.533v8.533
			c0,4.719,3.823,8.533,8.533,8.533s8.533-3.814,8.533-8.533v-8.533h8.533c4.71,0,8.533-3.814,8.533-8.533V17.067
			C512,12.348,508.177,8.533,503.467,8.533z"/>
	</g>
</g>
<g>
	<g>
		<path d="M503.467,452.267h-34.133c-4.71,0-8.533,3.814-8.533,8.533v8.533h-25.6c-4.71,0-8.533,3.814-8.533,8.533
			s3.823,8.533,8.533,8.533h25.6v8.533c0,4.719,3.823,8.533,8.533,8.533h34.133c4.71,0,8.533-3.814,8.533-8.533V460.8
			C512,456.081,508.177,452.267,503.467,452.267z"/>
	</g>
</g>
<g>
	<g>
		<path d="M281.6,25.6v-8.533c0-4.719-3.823-8.533-8.533-8.533h-34.133c-4.71,0-8.533,3.814-8.533,8.533V51.2
			c0,4.719,3.823,8.533,8.533,8.533h34.133c4.71,0,8.533-3.814,8.533-8.533v-8.533c4.71,0,8.533-3.814,8.533-8.533
			S286.31,25.6,281.6,25.6z"/>
	</g>
</g>
<g>
	<g>
		<path d="M25.6,401.067c-4.71,0-8.533,3.814-8.533,8.533v17.067c0,4.719,3.823,8.533,8.533,8.533c4.71,0,8.533-3.814,8.533-8.533
			V409.6C34.133,404.881,30.31,401.067,25.6,401.067z"/>
	</g>
</g>
<g>
	<g>
		<path d="M25.6,349.867c-4.71,0-8.533,3.814-8.533,8.533v17.067c0,4.719,3.823,8.533,8.533,8.533c4.71,0,8.533-3.814,8.533-8.533
			V358.4C34.133,353.681,30.31,349.867,25.6,349.867z"/>
	</g>
</g>
<g>
	<g>
		<path d="M25.6,298.667c-4.71,0-8.533,3.814-8.533,8.533v17.067c0,4.719,3.823,8.533,8.533,8.533c4.71,0,8.533-3.814,8.533-8.533
			V307.2C34.133,302.481,30.31,298.667,25.6,298.667z"/>
	</g>
</g>
<g>
	<g>
		<path d="M25.6,247.467c-4.71,0-8.533,3.814-8.533,8.533v17.067c0,4.719,3.823,8.533,8.533,8.533c4.71,0,8.533-3.814,8.533-8.533
			V256C34.133,251.281,30.31,247.467,25.6,247.467z"/>
	</g>
</g>
<g>
	<g>
		<path d="M486.4,401.067c-4.71,0-8.533,3.814-8.533,8.533v17.067c0,4.719,3.823,8.533,8.533,8.533s8.533-3.814,8.533-8.533V409.6
			C494.933,404.881,491.11,401.067,486.4,401.067z"/>
	</g>
</g>
<g>
	<g>
		<path d="M110.933,25.6H93.867c-4.71,0-8.533,3.814-8.533,8.533s3.823,8.533,8.533,8.533h17.067c4.71,0,8.533-3.814,8.533-8.533
			S115.644,25.6,110.933,25.6z"/>
	</g>
</g>
<g>
	<g>
		<path d="M486.4,349.867c-4.71,0-8.533,3.814-8.533,8.533v17.067c0,4.719,3.823,8.533,8.533,8.533s8.533-3.814,8.533-8.533V358.4
			C494.933,353.681,491.11,349.867,486.4,349.867z"/>
	</g>
</g>
<g>
	<g>
		<path d="M435.2,25.6h-17.067c-4.71,0-8.533,3.814-8.533,8.533s3.823,8.533,8.533,8.533H435.2c4.71,0,8.533-3.814,8.533-8.533
			S439.91,25.6,435.2,25.6z"/>
	</g>
</g>
<g>
	<g>
		<path d="M25.6,196.267c-4.71,0-8.533,3.814-8.533,8.533v17.067c0,4.719,3.823,8.533,8.533,8.533c4.71,0,8.533-3.814,8.533-8.533
			V204.8C34.133,200.081,30.31,196.267,25.6,196.267z"/>
	</g>
</g>
<g>
	<g>
		<path d="M384,25.6h-17.067c-4.71,0-8.533,3.814-8.533,8.533s3.823,8.533,8.533,8.533H384c4.71,0,8.533-3.814,8.533-8.533
			S388.71,25.6,384,25.6z"/>
	</g>
</g>
<g>
	<g>
		<path d="M486.4,145.067c-4.71,0-8.533,3.814-8.533,8.533v17.067c0,4.719,3.823,8.533,8.533,8.533s8.533-3.814,8.533-8.533V153.6
			C494.933,148.881,491.11,145.067,486.4,145.067z"/>
	</g>
</g>
<g>
	<g>
		<path d="M332.8,25.6h-17.067c-4.71,0-8.533,3.814-8.533,8.533s3.823,8.533,8.533,8.533H332.8c4.71,0,8.533-3.814,8.533-8.533
			S337.51,25.6,332.8,25.6z"/>
	</g>
</g>
<g>
	<g>
		<path d="M349.867,469.333H332.8c-4.71,0-8.533,3.814-8.533,8.533s3.823,8.533,8.533,8.533h17.067c4.71,0,8.533-3.814,8.533-8.533
			S354.577,469.333,349.867,469.333z"/>
	</g>
</g>
<g>
	<g>
		<path d="M298.667,469.333H281.6V460.8c0-4.719-3.823-8.533-8.533-8.533h-34.133c-4.71,0-8.533,3.814-8.533,8.533v8.533h-17.067
			c-4.71,0-8.533,3.814-8.533,8.533s3.823,8.533,8.533,8.533H230.4v8.533c0,4.719,3.823,8.533,8.533,8.533h34.133
			c4.71,0,8.533-3.814,8.533-8.533V486.4h17.067c4.71,0,8.533-3.814,8.533-8.533S303.377,469.333,298.667,469.333z"/>
	</g>
</g>
<g>
	<g>
		<path d="M486.4,247.467c-4.71,0-8.533,3.814-8.533,8.533v17.067c0,4.719,3.823,8.533,8.533,8.533s8.533-3.814,8.533-8.533V256
			C494.933,251.281,491.11,247.467,486.4,247.467z"/>
	</g>
</g>
<g>
	<g>
		<path d="M486.4,93.867c-4.71,0-8.533,3.814-8.533,8.533v17.067c0,4.719,3.823,8.533,8.533,8.533s8.533-3.814,8.533-8.533V102.4
			C494.933,97.681,491.11,93.867,486.4,93.867z"/>
	</g>
</g>
<g>
	<g>
		<path d="M25.6,145.067c-4.71,0-8.533,3.814-8.533,8.533v17.067c0,4.719,3.823,8.533,8.533,8.533c4.71,0,8.533-3.814,8.533-8.533
			V153.6C34.133,148.881,30.31,145.067,25.6,145.067z"/>
	</g>
</g>
<g>
	<g>
		<path d="M401.067,469.333H384c-4.71,0-8.533,3.814-8.533,8.533S379.29,486.4,384,486.4h17.067c4.71,0,8.533-3.814,8.533-8.533
			S405.777,469.333,401.067,469.333z"/>
	</g>
</g>
<g>
	<g>
		<path d="M486.4,196.267c-4.71,0-8.533,3.814-8.533,8.533v17.067c0,4.719,3.823,8.533,8.533,8.533s8.533-3.814,8.533-8.533V204.8
			C494.933,200.081,491.11,196.267,486.4,196.267z"/>
	</g>
</g>
<g>
	<g>
		<path d="M486.4,298.667c-4.71,0-8.533,3.814-8.533,8.533v17.067c0,4.719,3.823,8.533,8.533,8.533s8.533-3.814,8.533-8.533V307.2
			C494.933,302.481,491.11,298.667,486.4,298.667z"/>
	</g>
</g>
<g>
	<g>
		<path d="M76.8,469.333H51.2V460.8c0-4.719-3.823-8.533-8.533-8.533H8.533c-4.71,0-8.533,3.814-8.533,8.533v34.133
			c0,4.719,3.823,8.533,8.533,8.533h34.133c4.71,0,8.533-3.814,8.533-8.533V486.4h25.6c4.71,0,8.533-3.814,8.533-8.533
			S81.51,469.333,76.8,469.333z"/>
	</g>
</g>
<g>
	<g>
		<path d="M213.333,25.6h-17.067c-4.71,0-8.533,3.814-8.533,8.533s3.823,8.533,8.533,8.533h17.067c4.71,0,8.533-3.814,8.533-8.533
			S218.044,25.6,213.333,25.6z"/>
	</g>
</g>
<g>
	<g>
		<path d="M25.6,93.867c-4.71,0-8.533,3.814-8.533,8.533v17.067c0,4.719,3.823,8.533,8.533,8.533c4.71,0,8.533-3.814,8.533-8.533
			V102.4C34.133,97.681,30.31,93.867,25.6,93.867z"/>
	</g>
</g>
<g>
	<g>
		<path d="M128,469.333h-17.067c-4.71,0-8.533,3.814-8.533,8.533s3.823,8.533,8.533,8.533H128c4.71,0,8.533-3.814,8.533-8.533
			S132.71,469.333,128,469.333z"/>
	</g>
</g>
<g>
	<g>
		<path d="M179.2,469.333h-17.067c-4.71,0-8.533,3.814-8.533,8.533s3.823,8.533,8.533,8.533H179.2c4.71,0,8.533-3.814,8.533-8.533
			S183.91,469.333,179.2,469.333z"/>
	</g>
</g>
<g>
	<g>
		<path d="M162.133,25.6h-17.067c-4.71,0-8.533,3.814-8.533,8.533s3.823,8.533,8.533,8.533h17.067c4.71,0,8.533-3.814,8.533-8.533
			S166.844,25.6,162.133,25.6z"/>
	</g>
</g>
<g>
</g>
<g>
</g>
<g>
</g>
<g>
</g>
<g>
</g>
<g>
</g>
<g>
</g>
<g>
</g>
<g>
</g>
<g>
</g>
<g>
</g>
<g>
</g>
<g>
</g>
<g>
</g>
<g>
</g>
</svg>
