<?xml version="1.0" encoding="utf-8"?>
<!-- Generator: Adobe Illustrator 22.0.0, SVG Export Plug-In . SVG Version: 6.00 Build 0)  -->
<svg version="1.1" id="Capa_1" xmlns="http://www.w3.org/2000/svg" xmlns:xlink="http://www.w3.org/1999/xlink" x="0px" y="0px"
	 viewBox="0 0 480.1 480.1" style="enable-background:new 0 0 480.1 480.1;" xml:space="preserve">
<style type="text/css">
	.st0{fill:#512DA8;}
	.st1{fill:#007BFF;}
	.st2{fill:#7673EF;}
</style>
<g>
	<g id="XMLID_1_">
		<g>
			<path class="st0" d="M480,408c0.4,12.8-9.6,23.5-22.4,24H406c-3.2,12.4-10.1,23.5-19.7,32H472c4.4,0,8,3.6,8,8s-3.6,8-8,8H8.1
				c-4.4,0-8-3.6-8-8s3.6-8,8-8h13.9C10,453.7,2.4,439.3,0.5,423.6c-4.3-35.1,20.7-67,55.8-71.3c35.1-4.3,67,20.7,71.3,55.8h153.1
				c2.5-20.3,14.6-38.1,32.5-48c30.9-17.1,69.8-5.8,86.9,25.1V384h48V259.3l-13.6-13.6c-1.2-1.2-2-2.8-2.3-4.4l-15-97.2H288v184
				c0,4.4-3.6,8-8,8H0.1v-16h49.5c-0.9-2.6-1.4-5.3-1.5-8c0-13.3,10.8-24,24-24c13.3,0,24,10.8,24,24c0,2.7-0.5,5.4-1.4,8h18.9
				c-0.9-2.6-1.4-5.3-1.5-8c0-13.3,10.8-24,24-24c13.3,0,24,10.8,24,24c0,2.7-0.5,5.4-1.4,8h18.9c-0.9-2.6-1.4-5.3-1.5-8
				c0-13.3,10.8-24,24-24c13.3,0,24,10.8,24,24c0,2.7-0.5,5.4-1.4,8H272V136c0-4.4,3.6-8,8-8h144c4,0,7.3,2.9,7.9,6.8l15.6,101.4
				l14.1,14.2c1.5,1.5,2.3,3.5,2.3,5.6v129.1C473.8,388.5,480.2,397.8,480,408z M463.9,409.8c1-4.4-1.8-8.8-6.2-9.8H406
				c1.4,5.2,2.1,10.6,2.1,16h49.6C460.7,415.3,463.2,412.9,463.9,409.8z M392,416c0-26.5-21.5-48-48-48c-26.5,0-48,21.5-48,48
				c0,26.5,21.5,48,48,48C370.6,464,392,442.5,392,416z M106.3,464h195.6c-11.7-10.3-19.3-24.5-21.3-40H127.5
				C125.5,439.5,118,453.7,106.3,464z M208.1,312c0-4.4-3.6-8-8-8s-8,3.6-8,8s3.6,8,8,8S208.1,316.5,208.1,312z M144.1,312
				c0-4.4-3.6-8-8-8s-8,3.6-8,8s3.6,8,8,8S144.1,316.5,144.1,312z M112.1,416c0-26.5-21.5-48-48-48s-48,21.5-48,48
				c0,26.5,21.5,48,48,48C90.6,464,112.1,442.5,112.1,416z M80.1,312c0-4.4-3.6-8-8-8c-4.4,0-8,3.6-8,8s3.6,8,8,8
				C76.5,320,80.1,316.5,80.1,312z"/>
			<path class="st1" d="M457.6,400c4.4,1,7.2,5.4,6.2,9.8c-0.7,3.1-3.1,5.5-6.2,6.2H408c0-5.4-0.7-10.8-2.1-16H457.6z"/>
			<path class="st0" d="M432,336v24c0,4.4-3.6,8-8,8c-4.4,0-8-3.6-8-8v-24c0-4.4,3.6-8,8-8C428.5,328,432,331.6,432,336z"/>
			<path class="st0" d="M408,239.1c0,0.3,0.1,0.6,0.1,0.9c0,4.4-3.6,8-8.1,7.9h-88c-4.4,0-8-3.6-8-8v-72c0-4.4,3.6-8,8-8h80
				c4.1,0,7.6,3.1,8,7.1L408,239.1z M391.1,232l-6.2-56H320v56H391.1z"/>
			<polygon class="st1" points="384.9,176 391.1,232 320,232 320,176 			"/>
			<path class="st1" d="M344,368c26.5,0,48,21.5,48,48s-21.5,48-48,48c-26.5,0-48-21.5-48-48C296,389.5,317.5,368,344,368z M376,416
				c0-17.7-14.3-32-32-32c-17.7,0-32,14.3-32,32c0,17.7,14.3,32,32,32C361.7,448,376,433.7,376,416z"/>
			<path class="st0" d="M344,384c17.7,0,32,14.3,32,32c0,17.7-14.3,32-32,32c-17.7,0-32-14.3-32-32C312,398.4,326.4,384,344,384z
				 M360,416c0-8.8-7.2-16-16-16c-8.8,0-16,7.2-16,16c0,8.8,7.2,16,16,16C352.9,432,360,424.9,360,416z"/>
			<circle class="st2" cx="344" cy="416" r="16"/>
			<path class="st0" d="M253.8,138.4c3,3.1,3,8,0,11.1c-3.1,3.2-8.1,3.3-11.3,0.2l-10.4-10.4v106.5c0.1,6.5-2,12.8-6,17.9
				c-4,5.2-10.1,8.2-16.6,8.3H62.7c-6.5-0.1-12.6-3.2-16.6-8.3c-4-5.1-6.1-11.4-6.1-17.9V139.3l-10.3,10.4c-0.1,0.1-0.1,0.1-0.2,0.2
				c-3.2,3.1-8.2,3-11.3-0.2c-3.1-3.2-3-8.3,0.2-11.3l24-24l88-88c3.1-3.1,8.2-3.1,11.3,0L253.8,138.4z M216.4,123.7l-80.4-80.4
				l-80,80v122.5c0,2.8,0.9,5.6,2.5,7.9c1,1.4,2.5,2.2,4.1,2.3h41.3v-88c0-4.4,3.6-8,8-8h48c4.4,0,8,3.6,8,8v88h41.4
				c1.7-0.1,3.2-1,4.1-2.4c1.7-2.3,2.6-5,2.5-7.9V125.4C216.1,124.8,216.3,124.2,216.4,123.7z M152.1,256v-80h-32v80H152.1z"/>
			<path class="st1" d="M240.1,24v48c0,4.4-3.6,8-8,8s-8-3.6-8-8V24c0-4.4-3.6-8-8-8s-8,3.6-8,8v24c0,4.4-3.6,8-8,8s-8-3.6-8-8V24
				c0-13.3,10.8-24,24-24C229.3,0,240.1,10.8,240.1,24z"/>
			<path class="st2" d="M136.1,43.3l80.4,80.4c-0.2,0.5-0.3,1.1-0.3,1.7v120.5c0.1,2.8-0.8,5.6-2.5,7.9c-1,1.4-2.5,2.2-4.1,2.4
				h-41.4v-88c0-4.4-3.6-8-8-8h-48c-4.4,0-8,3.6-8,8v88H62.7c-1.7-0.1-3.2-1-4.1-2.3c-1.7-2.3-2.6-5-2.5-7.9V123.3L136.1,43.3z
				 M176.1,120c0-4.4-3.6-8-8-8h-44.7l18.3-18.3c3-3.3,2.7-8.3-0.5-11.3c-3.1-2.8-7.7-2.8-10.8,0l-32,32c-3.1,3.1-3.1,8.2,0,11.3
				c1.5,1.5,3.5,2.3,5.6,2.3h64C172.5,128,176.1,124.4,176.1,120z"/>
			<circle class="st1" cx="200.1" cy="312" r="8"/>
			<path class="st0" d="M168.1,112c4.4,0,8,3.6,8,8s-3.6,8-8,8h-64c-2.1,0-4.1-0.8-5.6-2.3c-3.1-3.1-3.1-8.2,0-11.3l32-32
				c3.1-2.8,7.7-2.8,10.8,0c3.3,3,3.5,8,0.5,11.3L123.4,112H168.1z"/>
			<rect x="120.1" y="176" class="st1" width="32" height="80"/>
			<circle class="st1" cx="136.1" cy="312" r="8"/>
			<path class="st1" d="M64.1,368c26.5,0,48,21.5,48,48s-21.5,48-48,48c-26.5,0-48-21.5-48-48C16,389.5,37.5,368,64.1,368z
				 M96.1,416c0-17.7-14.3-32-32-32c-17.7,0-32,14.3-32,32c0,17.7,14.3,32,32,32C81.7,448,96.1,433.7,96.1,416z"/>
			<path class="st0" d="M64.1,384c17.7,0,32,14.3,32,32c0,17.7-14.3,32-32,32c-17.7,0-32-14.3-32-32C32,398.4,46.4,384,64.1,384z
				 M80.1,416c0-8.8-7.2-16-16-16c-8.8,0-16,7.2-16,16c0,8.8,7.2,16,16,16C72.9,432,80.1,424.9,80.1,416z"/>
			<circle class="st1" cx="72.1" cy="312" r="8"/>
			<circle class="st2" cx="64.1" cy="416" r="16"/>
		</g>
		<g>
		</g>
	</g>
</g>
</svg>
