<?xml version="1.0" encoding="iso-8859-1"?>
<!-- Generator: Adobe Illustrator 19.0.0, SVG Export Plug-In . SVG Version: 6.00 Build 0)  -->
<svg version="1.1" id="Capa_1" xmlns="http://www.w3.org/2000/svg" xmlns:xlink="http://www.w3.org/1999/xlink" x="0px" y="0px"
	 viewBox="0 0 464.802 464.802" style="enable-background:new 0 0 464.802 464.802;" xml:space="preserve">
<g>
	<g>
		<path d="M287.666,234.04c-2.257-0.006-4.381,1.063-5.72,2.88c-23.213,31.576-67.628,38.355-99.204,15.143
			c-12.35-9.079-21.429-21.914-25.876-36.583c-0.668-3.311-3.582-5.689-6.96-5.68h-36.36c-3.91,0-7.08,3.17-7.08,7.08v44.28h7.56
			c2.225,0.002,4.446,0.189,6.64,0.56v-37.68h24c12.263,33.613,44.22,55.983,80,56l0.08,0.04c25.832-0.034,50.248-11.808,66.36-32
			h79.24v-14.04H287.666z"/>
	</g>
</g>
<g>
	<g>
		<path d="M434.826,92.52c-5.504-5.577-13.004-8.73-20.84-8.76c-16.348,0-29.6,13.252-29.6,29.6V276.6
			c0.044,16.285,13.235,29.476,29.52,29.52l0.08-0.04c16.285-0.044,29.476-13.235,29.52-29.52v-163.2
			C443.501,105.535,440.377,98.035,434.826,92.52z M429.266,276.6c-0.13,8.365-6.914,15.096-15.28,15.16
			c-8.443-0.044-15.276-6.877-15.32-15.32V113.36c0.044-8.443,6.877-15.276,15.32-15.32c4.057,0.013,7.943,1.639,10.8,4.52
			c2.872,2.876,4.484,6.775,4.48,10.84V276.6z"/>
	</g>
</g>
<g>
	<g>
		<path d="M276.386,7.76l-0.48-0.44c-4.749-4.622-11.093-7.243-17.72-7.32h-66.8c-6.897,0.042-13.491,2.836-18.32,7.76
			c-10.118,10.064-10.161,26.425-0.097,36.543c0.032,0.032,0.065,0.065,0.097,0.097l0.48,0.44c4.842,4.505,11.227,6.981,17.84,6.92
			h66.8c6.821-0.01,13.361-2.713,18.2-7.52C286.435,34.156,286.435,17.844,276.386,7.76z M266.508,34.198
			c-0.014,0.014-0.028,0.028-0.042,0.042c-2.192,2.203-5.172,3.441-8.28,3.44h-66.8c-2.972,0.003-5.832-1.127-8-3.16l-0.28-0.32
			c-4.573-4.55-4.592-11.945-0.042-16.518c0.014-0.014,0.028-0.028,0.042-0.042c2.192-2.203,5.172-3.441,8.28-3.44h66.8
			c2.972-0.003,5.832,1.127,8,3.16l0.28,0.32C271.039,22.23,271.058,29.625,266.508,34.198z"/>
	</g>
</g>
<g>
	<g>
		<path d="M291.146,135.4c-6.83-9.092-15.464-16.677-25.36-22.28c-10.481-5.612-22.084-8.81-33.96-9.36V66h-14.12v37.76
			c-15.836,1.907-30.874,8.011-43.56,17.68c-13.219,9.725-23.39,23.018-29.32,38.32h-53.24c-28.161-0.022-51.046,22.719-51.2,50.88
			v51.08c2.194-0.371,4.415-0.558,6.64-0.56h7.72v-50.52c0.066-20.319,16.521-36.774,36.84-36.84h58.32
			c3.154-0.001,5.927-2.089,6.8-5.12c4.601-14.392,13.701-26.927,25.96-35.76c12.076-9.366,26.805-14.672,42.08-15.16
			c11.88-0.368,23.655,2.318,34.2,7.8c8.999,5.177,16.755,12.263,22.72,20.76c1.304,2.051,3.57,3.289,6,3.28h82.68v-14.2H291.146z"
			/>
	</g>
</g>
<g>
	<g>
		<path d="M132.386,282.92l-0.48-0.44c-4.798-4.607-11.188-7.186-17.84-7.2h-66.88c-6.86,0.011-13.435,2.744-18.28,7.6
			c-10.096,10.024-10.154,26.334-0.13,36.43c0.043,0.044,0.087,0.087,0.13,0.13l-0.04,0.12c4.853,4.869,11.445,7.604,18.32,7.6h66.8
			c14.315,0.035,25.948-11.541,25.984-25.856C139.986,294.411,137.257,287.796,132.386,282.92z M122.211,309.575
			c-2.194,2.19-5.166,3.422-8.265,3.425h-66.76c-3.108,0.001-6.088-1.237-8.28-3.44c-4.567-4.575-4.567-11.985,0-16.56l-0.04-0.04
			c2.192-2.203,5.172-3.441,8.28-3.44h66.8c2.972-0.003,5.832,1.127,8,3.16l0.28,0.32
			C126.799,297.581,126.792,305.002,122.211,309.575z"/>
	</g>
</g>
<g>
	<g>
		<path d="M93.906,359.32c-3.08-3.56-5.88-6.76-7.8-9.12c-2.435-3.06-6.889-3.566-9.949-1.132c-0.419,0.333-0.798,0.713-1.131,1.132
			c-1.88,2.36-4.68,5.6-7.72,9.12c-13.88,16-33,38.24-33,57.8c-0.752,25.571,19.368,46.909,44.939,47.661
			c25.571,0.752,46.909-19.368,47.661-44.939c0.027-0.907,0.027-1.815,0-2.722C126.906,397.56,107.746,375.36,93.906,359.32z
			 M103.306,439.76c-12.333,12.659-32.592,12.923-45.251,0.591c-6.24-6.079-9.732-14.439-9.669-23.151
			c0-14.36,17.12-34.2,29.52-48.56l2.6-3l2.6,3c12.4,14.36,29.52,34.2,29.52,48.56C112.622,425.656,109.271,433.767,103.306,439.76z
			"/>
	</g>
</g>
<g>
</g>
<g>
</g>
<g>
</g>
<g>
</g>
<g>
</g>
<g>
</g>
<g>
</g>
<g>
</g>
<g>
</g>
<g>
</g>
<g>
</g>
<g>
</g>
<g>
</g>
<g>
</g>
<g>
</g>
</svg>
