<?xml version="1.0" encoding="iso-8859-1"?>
<!-- Generator: Adobe Illustrator 19.0.0, SVG Export Plug-In . SVG Version: 6.00 Build 0)  -->
<svg version="1.1" id="Capa_1" xmlns="http://www.w3.org/2000/svg" xmlns:xlink="http://www.w3.org/1999/xlink" x="0px" y="0px"
	 viewBox="0 0 480 480" style="enable-background:new 0 0 480 480;" xml:space="preserve">
<g>
	<g>
		<path d="M448,432V0H32v432H0v48h480v-48H448z M48,16h384v416H48V16z M464,464H16v-16h448V464z"/>
	</g>
</g>
<g>
	<g>
		<path d="M224,56H96c-4.418,0-8,3.582-8,8v144c0,4.418,3.582,8,8,8h128c4.418,0,8-3.582,8-8V64C232,59.582,228.418,56,224,56z
			 M216,200H104V72h112V200z"/>
	</g>
</g>
<g>
	<g>
		<path d="M384,56H256c-4.418,0-8,3.582-8,8v144c0,4.418,3.582,8,8,8h128c4.418,0,8-3.582,8-8V64C392,59.582,388.418,56,384,56z
			 M376,200H264V72h112V200z"/>
	</g>
</g>
<g>
	<g>
		<path d="M224,232H96c-4.418,0-8,3.582-8,8v144c0,4.418,3.582,8,8,8h128c4.418,0,8-3.582,8-8V240C232,235.582,228.418,232,224,232z
			 M216,376H104V248h112V376z"/>
	</g>
</g>
<g>
	<g>
		<path d="M384,232H256c-4.418,0-8,3.582-8,8v144c0,4.418,3.582,8,8,8h128c4.418,0,8-3.582,8-8V240C392,235.582,388.418,232,384,232
			z M376,376H264V248h112V376z"/>
	</g>
</g>
<g>
	<g>
		<path d="M416,24H64c-4.418,0-8,3.582-8,8v384c0,4.418,3.582,8,8,8h352c4.418,0,8-3.582,8-8V32C424,27.582,420.418,24,416,24z
			 M408,408H72V40h336V408z"/>
	</g>
</g>
<g>
</g>
<g>
</g>
<g>
</g>
<g>
</g>
<g>
</g>
<g>
</g>
<g>
</g>
<g>
</g>
<g>
</g>
<g>
</g>
<g>
</g>
<g>
</g>
<g>
</g>
<g>
</g>
<g>
</g>
</svg>
